<svg xmlns="http://www.w3.org/2000/svg" width="256" height="256" viewBox="0 0 100 100"><rect width="100" height="100" rx="20" fill="#ffc107"></rect><path d="M42.98 33.95L50.25 33.95L50.25 66.05L43.81 66.05L43.81 45.17L35.21 66.05L30.34 66.05L21.69 45.17L21.69 66.05L15.25 66.05L15.25 33.95L22.56 33.95L32.77 57.82L42.98 33.95ZM67.83 33.95Q72.88 33.95 76.73 35.92Q80.57 37.90 82.66 41.56Q84.75 45.22 84.75 50.05L84.75 50.05Q84.75 54.88 82.66 58.49Q80.57 62.10 76.73 64.08Q72.88 66.05 67.83 66.05L67.83 66.05L56.60 66.05L56.60 33.95L67.83 33.95ZM67.59 60.58Q72.66 60.58 75.41 57.82Q78.17 55.06 78.17 50.05L78.17 50.05Q78.17 45.03 75.41 42.20Q72.66 39.37 67.59 39.37L67.59 39.37L63.04 39.37L63.04 60.58L67.59 60.58Z" fill="#20202a"></path></svg>